PathFileType	4	(X/Y/Z)	/Users/itak/Documents/Research/Walk-IL/dataset/trc/00572_00009.trc
DataRate	CameraRate	NumFrames	NumMarkers	Units	OrigDataRate	OrigDataStartFrame	OrigNumFrames
100.000000	100.000000	4	53	mm	100.000000	448	513
Frame#	Time	RPSI			LPSI			L3			STRN			T10			C7			CLAV			RBAK			LBAK			LSHO			LUPA			LAEL			LAOL			LWTS			LWPS			LFRA			LIFD			LHPS			LHTS			RSHO			RUPA			RAEL			RAOL			RWTS			RWPS			RFRA			RHTS			RHPS			RBHD			LFHD			RFHD			LBHD			LHIP			RHIP			RASI			LASI			LKNE			LTHI			LANK			LTIP			LTOE			LMT1			LMT5			LHEE			RKNE			RTHI			RANK			RTIP			RTOE			RMT1			RMT5			RHEE			RIFD			
		X1	Y1	Z1	X2	Y2	Z2	X3	Y3	Z3	X4	Y4	Z4	X5	Y5	Z5	X6	Y6	Z6	X7	Y7	Z7	X8	Y8	Z8	X9	Y9	Z9	X10	Y10	Z10	X11	Y11	Z11	X12	Y12	Z12	X13	Y13	Z13	X14	Y14	Z14	X15	Y15	Z15	X16	Y16	Z16	X17	Y17	Z17	X18	Y18	Z18	X19	Y19	Z19	X20	Y20	Z20	X21	Y21	Z21	X22	Y22	Z22	X23	Y23	Z23	X24	Y24	Z24	X25	Y25	Z25	X26	Y26	Z26	X27	Y27	Z27	X28	Y28	Z28	X29	Y29	Z29	X30	Y30	Z30	X31	Y31	Z31	X32	Y32	Z32	X33	Y33	Z33	X34	Y34	Z34	X35	Y35	Z35	X36	Y36	Z36	X37	Y37	Z37	X38	Y38	Z38	X39	Y39	Z39	X40	Y40	Z40	X41	Y41	Z41	X42	Y42	Z42	X43	Y43	Z43	X44	Y44	Z44	X45	Y45	Z45	X46	Y46	Z46	X47	Y47	Z47	X48	Y48	Z48	X49	Y49	Z49	X50	Y50	Z50	X51	Y51	Z51	X52	Y52	Z52	X53	Y53	Z53	

449	4.48	276.7553405761719	1017.65185546875	1130.785522460938	410.9580383300781	1024.0419921875	1131.385498046875	347.2629089355469	1111.378173828125	1135.09521484375	363.0457458496094	1305.241455078125	1362.82373046875	349.1495666503906	1237.69287109375	1123.036499023438	339.4535522460938	1513.619506835938	1165.715576171875	363.0144348144531	1416.085205078125	1341.45361328125	249.6431732177734	1386.001586914062	1104.510131835938	427.1419982910156	1459.991088867188	1125.71337890625	519.1620483398438	1484.412719726562	1214.905151367188	593.0089111328125	1355.997314453125	1190.432861328125	613.4808959960938	1134.9326171875	1188.716430664062	549.0962524414062	1135.795776367188	1111.129638671875	577.579833984375	878.679443359375	1249.74609375	643.8764038085938	866.2525024414062	1194.008056640625	623.0186157226562	1046.402465820312	1199.4658203125	576.5053100585938	713.4349975585938	1207.53564453125	636.2335815429688	805.365478515625	1190.809204101562	599.314697265625	799.23291015625	1247.451904296875	187.2180633544922	1477.980834960938	1235.45947265625	117.0699768066406	1413.852172851562	1221.496704101562	68.06139373779297	1125.525024414062	1213.934692382812	96.56163787841797	1107.947143554688	1158.297119140625	103.2732391357422	904.5064697265625	1347.664916992188	36.10837936401367	884.9298095703125	1301.273559570312	60.54510116577148	1070.103759765625	1223.33935546875	85.69069671630859	813.4132690429688	1375.296142578125	38.48139572143555	811.0275268554688	1318.271118164062	276.0354919433594	1690.744506835938	1247.398681640625	424.2630615234375	1725.004150390625	1389.078735351562	280.308837890625	1718.221923828125	1385.40283203125	441.5824584960938	1698.01904296875	1258.90771484375	545.622314453125	949.1199340820312	1259.305786132812	153.4021453857422	946.0426635742188	1257.10498046875	214.9229736328125	979.3391723632812	1340.609741210938	491.4806823730469	972.4379272460938	1337.239501953125	479.0489501953125	501.5911865234375	1274.90576171875	517.1992797851562	666.0535278320312	1279.92919921875	466.0062255859375	36.73723983764648	1175.514038085938	479.3419799804688	258.543212890625	1203.157104492188	413.6709289550781	45.78701400756836	1389.918090820312	376.5411071777344	50.67255401611328	1318.255859375	485.2449340820312	40.38620376586914	1297.144287109375	407.7841796875	40.3309211730957	1109.575805664062	214.1653137207031	502.4032287597656	1285.909057617188	164.8319702148438	791.4022216796875	1295.454223632812	239.4059143066406	44.23079299926758	1178.696655273438	230.8197021484375	359.7273559570312	1277.930297851562	283.6000366210938	44.44495010375977	1399.13818359375	325.0998840332031	41.30326461791992	1332.065551757812	223.8920440673828	46.13334655761719	1311.1318359375	290.1254577636719	33.54398345947266	1122.734130859375	99.31962585449219	731.958740234375	1354.912719726562	
450	4.49	276.359375	1017.562622070312	1132.176391601562	410.5722351074219	1023.969177246094	1132.724487304688	346.8038330078125	1111.271728515625	1136.533447265625	362.4004516601562	1305.285888671875	1363.78955078125	348.4535217285156	1237.585083007812	1124.1513671875	338.3581848144531	1513.508422851562	1166.605102539062	362.2336120605469	1416.067138671875	1342.28369140625	248.6541442871094	1385.767456054688	1105.512084960938	426.0370178222656	1459.927612304688	1126.477294921875	518.1708374023438	1484.51171875	1215.4169921875	592.0958862304688	1356.290649414062	1190.422485351562	612.7813720703125	1135.289184570312	1187.836059570312	547.9185180664062	1136.309204101562	1110.686645507812	577.4810791015625	878.8970947265625	1248.46044921875	643.460205078125	866.6290283203125	1192.270263671875	622.4338989257812	1046.771606445312	1198.325805664062	576.3385620117188	713.7549438476562	1205.873168945312	635.8360595703125	805.7523803710938	1188.973388671875	599.4628295898438	799.4307861328125	1246.015502929688	186.297119140625	1477.764892578125	1236.4423828125	116.200569152832	1413.578369140625	1222.526245117188	67.50855255126953	1125.21142578125	1214.939208984375	95.89324188232422	1107.671875	1159.311767578125	102.9223251342773	904.0162963867188	1348.449829101562	35.64385604858398	884.502685546875	1302.11376953125	59.89703369140625	1069.771728515625	1224.348754882812	85.34738922119141	812.8728637695312	1375.9873046875	38.15491104125977	810.5611572265625	1318.965209960938	274.9731140136719	1690.63916015625	1248.10986328125	423.4048461914062	1725.157104492188	1389.525634765625	279.4830322265625	1718.323486328125	1386.090087890625	440.5378112792969	1697.97705078125	1259.380737304688	545.0804443359375	949.01904296875	1260.588623046875	152.8736724853516	945.9777221679688	1258.416015625	214.4347839355469	979.2593383789062	1341.928344726562	491.0584411621094	972.4808349609375	1338.610717773438	478.774658203125	501.5899963378906	1275.6005859375	516.8970947265625	666.0397338867188	1281.060546875	465.9795532226562	36.78772354125977	1175.508544921875	479.1776428222656	258.6054992675781	1203.463745117188	413.665283203125	45.78799819946289	1389.940551757812	376.5281677246094	50.66814041137695	1318.280517578125	485.2292175292969	40.4069938659668	1297.158569335938	407.7493591308594	40.37820053100586	1109.5869140625	214.0222778320312	502.3417663574219	1285.478393554688	164.7620697021484	791.281982421875	1296.538940429688	239.3467712402344	44.18423080444336	1178.687255859375	230.5528717041016	359.80810546875	1277.423706054688	283.5946960449219	44.44469833374023	1399.112670898438	325.0922546386719	41.32467651367188	1332.048095703125	223.8960113525391	46.13681411743164	1311.122680664062	290.0490112304688	33.49500274658203	1122.723876953125	99.02370452880859	731.4701538085938	1355.480712890625	
451	4.5	275.93408203125	1017.472351074219	1133.545288085938	410.1583557128906	1023.900573730469	1134.005249023438	346.3320922851562	1111.160766601562	1137.923095703125	361.7823791503906	1305.32373046875	1364.725708007812	347.7481689453125	1237.447998046875	1125.255859375	337.287841796875	1513.392700195312	1167.451782226562	361.4811096191406	1416.04248046875	1343.073974609375	247.6754455566406	1385.5185546875	1106.487548828125	424.9359130859375	1459.847778320312	1127.1953125	517.1994018554688	1484.605712890625	1215.874755859375	591.1898193359375	1356.55810546875	1190.385009765625	612.1007690429688	1135.617553710938	1187.06689453125	546.7674560546875	1136.745239257812	1110.341796875	577.4127197265625	879.1409301757812	1247.476440429688	643.0643920898438	866.97705078125	1190.837890625	621.8858032226562	1047.116455078125	1197.339477539062	576.1786499023438	714.0755004882812	1204.723510742188	635.4529418945312	806.1142578125	1187.506103515625	599.7263793945312	799.7083129882812	1245.029541015625	185.4108276367188	1477.525390625	1237.402587890625	115.3494262695312	1413.282836914062	1223.5439453125	66.9273681640625	1124.880615234375	1215.95068359375	95.22872161865234	1107.390258789062	1160.3046875	102.700439453125	903.5228881835938	1349.2216796875	35.25661849975586	884.0618896484375	1302.985107421875	59.25697708129883	1069.421875	1225.35400390625	85.13545227050781	812.3541870117188	1376.698852539062	37.93380355834961	810.0845947265625	1319.71142578125	273.930908203125	1690.5224609375	1248.77978515625	422.5713500976562	1725.316040039062	1389.940063476562	278.6711730957031	1718.411254882812	1386.737670898438	439.5128479003906	1697.9287109375	1259.825561523438	544.6292114257812	948.9754028320312	1261.81591796875	152.4010925292969	945.9051513671875	1259.729125976562	214.0021514892578	979.1718139648438	1343.249267578125	490.6762390136719	972.4968872070312	1339.897827148438	478.5259094238281	501.5916748046875	1276.22900390625	516.6212158203125	666.0291137695312	1282.098388671875	465.9547729492188	36.83910751342773	1175.501220703125	479.0396118164062	258.6661987304688	1203.71875	413.66064453125	45.79150390625	1389.96533203125	376.5148010253906	50.66558837890625	1318.303344726562	485.2167358398438	40.42546844482422	1297.1708984375	407.7106628417969	40.41640853881836	1109.595703125	213.8975067138672	502.2637939453125	1285.06884765625	164.6175384521484	791.154296875	1297.615112304688	239.2772674560547	44.13144302368164	1178.67138671875	230.3164367675781	359.8794250488281	1276.91650390625	283.5902709960938	44.44457626342773	1399.083129882812	325.081298828125	41.34926605224609	1332.028198242188	223.9051666259766	46.15148162841797	1311.115112304688	289.9668273925781	33.4425163269043	1122.711059570312	98.88776397705078	730.9825439453125	1356.067260742188	
452	4.51	275.4815063476562	1017.384582519531	1134.890380859375	409.7179260253906	1023.840515136719	1135.22509765625	345.8382568359375	1111.046875	1139.265869140625	361.196044921875	1305.359252929688	1365.634399414062	347.0340270996094	1237.280395507812	1126.355224609375	336.2455444335938	1513.2705078125	1168.2548828125	360.7628173828125	1416.014770507812	1343.831909179688	246.7124328613281	1385.253540039062	1107.4365234375	423.8436279296875	1459.7509765625	1127.865844726562	516.248291015625	1484.69775390625	1216.281860351562	590.291015625	1356.796997070312	1190.335327148438	611.436767578125	1135.920288085938	1186.424926757812	545.6486206054688	1137.10595703125	1110.098022460938	577.3546752929688	879.3801879882812	1246.776123046875	642.6878051757812	867.29638671875	1189.72412109375	621.3739013671875	1047.432739257812	1196.516479492188	576.0243530273438	714.3903198242188	1204.064331054688	635.089111328125	806.4500122070312	1186.411376953125	600.0465087890625	800.0468139648438	1244.448364257812	184.5565643310547	1477.267578125	1238.338256835938	114.5160064697266	1412.966430664062	1224.5498046875	66.31996917724609	1124.533081054688	1216.97021484375	94.58693695068359	1107.102172851562	1161.27734375	102.5936813354492	903.0289306640625	1349.989501953125	34.94208526611328	883.6101684570312	1303.879638671875	58.63826370239258	1069.056762695312	1226.352661132812	85.04035949707031	811.8606567382812	1377.431396484375	37.78166961669922	809.6035766601562	1320.511352539062	272.9068603515625	1690.394409179688	1249.410034179688	421.7600708007812	1725.478149414062	1390.322631835938	277.8704528808594	1718.485473632812	1387.346313476562	438.50732421875	1697.8759765625	1260.241577148438	544.26123046875	948.9906005859375	1262.985107421875	151.9859008789062	945.8211669921875	1261.0439453125	213.626708984375	979.0728759765625	1344.571899414062	490.3334655761719	972.4837036132812	1341.10107421875	478.2980651855469	501.5950012207031	1276.80712890625	516.3641357421875	666.0171508789062	1283.037475585938	465.9309692382812	36.89382553100586	1175.4921875	478.9296264648438	258.7280578613281	1203.922241210938	413.65625	45.79660034179688	1389.99365234375	376.5014038085938	50.6645393371582	1318.32421875	485.206787109375	40.44174575805664	1297.181640625	407.6666870117188	40.44834136962891	1109.603515625	213.7738494873047	502.1757507324219	1284.693237304688	164.3617553710938	791.0363159179688	1298.658447265625	239.1966857910156	44.07130813598633	1178.646606445312	230.1156005859375	359.9347534179688	1276.422973632812	283.5873107910156	44.44529724121094	1399.052001953125	325.0668334960938	41.37604904174805	1332.006225585938	223.9193115234375	46.17406463623047	1311.107421875	289.8797912597656	33.3849983215332	1122.694213867188	98.89630126953125	730.5010375976562	1356.675659179688	
